<svg id="eWbyo795cDC1" xmlns="http://www.w3.org/2000/svg" xmlns:xlink="http://www.w3.org/1999/xlink" viewBox="0 0 300 300" shape-rendering="geometricPrecision" text-rendering="geometricPrecision"><rect width="282.466113" height="278.96808" rx="10" ry="10" transform="translate(8.766944 10.51596)" fill="none" stroke="#51309e" stroke-width="8"/><path d="M8.766944,214.691736c0,0,72.79592-59.629352,77.814012-59.629352s63.419043,30.333331,63.419043,30.333331s70.616527-78.705732,76.738083-78.705732s64.494972,66.025364,64.494972,66.025364l-4.503206,112.374288h-273.554944l-4.40796-70.397899Z" transform="translate(.000003 0.000004)" fill="#51309e" stroke="#51309e" stroke-width="5"/><ellipse rx="32.5" ry="32.5" transform="translate(81.423132 74.189987)" fill="#51309e" stroke-width="2"/><path d="M226.738085,106.689987l-21.368799,20.731155l13.178649-3.634819.785607,3.142427h-.130935q1.702149,4.85661,1.702149,4.582707c0-.273903,8.294114-7.103254,8.431065-7.103254q.136951,0,7.669293,9.449664q1.64342-9.038809,1.64342-8.901857c0,.136952,10.545277,3.012936,10.271374,2.739033q-.273903-.273903-22.181823-21.005056Z" transform="translate(.000004 0.000002)" fill="#845ae7" stroke-width="0.6"/><path d="M72.736241,173.157133l6.254964,9.517643l6.32826-6.594267q5.46544,4.50648,5.46544,4.70282c0,.076381,5.592544-3.813098,5.592544-3.813098s7.932534,7.456461,7.932534,7.456461l.621982-13.268952l14.889307,2.286656q-32.985088-16.885222-32.788746-16.688883t-28.340152,21.816894" transform="translate(-.508411-.381309)" fill="#845ae7" stroke-width="0.6"/></svg>
